<?xml version="1.0" standalone="no"?>
<!DOCTYPE svg PUBLIC "-//W3C//DTD SVG 20010904//EN"
 "http://www.w3.org/TR/2001/REC-SVG-20010904/DTD/svg10.dtd">
<svg version="1.0" xmlns="http://www.w3.org/2000/svg"
 width="700.000000pt" height="700.000000pt" viewBox="0 0 700.000000 700.000000"
 preserveAspectRatio="xMidYMid meet">
<metadata>
Created by potrace 1.14, written by Peter Selinger 2001-2017
</metadata>
<g transform="translate(0.000000,700.000000) scale(0.100000,-0.100000)"
fill="#000000" stroke="none">
<path d="M1637 6404 c-213 -40 -396 -216 -453 -436 -16 -58 -17 -263 -17
-2468 0 -2245 1 -2409 18 -2470 29 -110 73 -188 150 -266 78 -79 146 -121 250
-156 l70 -23 1845 0 c1756 1 1848 1 1905 19 200 61 359 225 411 426 16 60 17
242 17 2470 0 2187 -1 2411 -16 2467 -52 200 -199 357 -397 424 l-65 23 -1825
1 c-1434 1 -1840 -1 -1893 -11z m1568 -576 c3 -3 4 -527 3 -1166 l-3 -1160
-362 217 -361 217 -39 -22 c-21 -12 -170 -101 -332 -198 -161 -97 -297 -176
-302 -176 -5 0 -9 -4 -9 -8 0 -5 -11 -14 -25 -20 l-25 -12 0 1164 c0 767 3
1165 10 1168 16 5 1440 2 1445 -4z"/>
</g>
</svg>
