<?xml version="1.0" standalone="no"?>
<!DOCTYPE svg PUBLIC "-//W3C//DTD SVG 20010904//EN"
 "http://www.w3.org/TR/2001/REC-SVG-20010904/DTD/svg10.dtd">
<svg version="1.0" xmlns="http://www.w3.org/2000/svg"
 width="512.000000pt" height="512.000000pt" viewBox="0 0 512.000000 512.000000"
 preserveAspectRatio="xMidYMid meet">
<metadata>
Created by potrace 1.14, written by Peter Selinger 2001-2017
</metadata>
<g transform="translate(0.000000,512.000000) scale(0.100000,-0.100000)"
fill="#000000" stroke="none">
<path d="M1078 4984 c-7 -6 -34 -12 -62 -13 -15 -1 -16 -4 -6 -16 11 -13 10
-14 -4 -9 -21 8 -66 -3 -66 -17 0 -6 5 -7 12 -3 7 4 8 3 4 -5 -6 -8 -11 -9
-20 -2 -10 8 -18 5 -32 -10 -10 -12 -18 -24 -16 -28 1 -3 -2 -7 -8 -7 -5 -1
-14 -2 -19 -3 -5 0 -7 -10 -4 -21 4 -16 2 -19 -12 -13 -13 4 -16 3 -11 -5 4
-7 0 -15 -9 -18 -13 -6 -14 -8 -3 -15 10 -7 9 -9 -4 -9 -9 0 -20 -5 -24 -12
-4 -7 -3 -8 4 -4 17 10 15 -9 -1 -23 -8 -6 -18 -7 -23 -3 -4 4 -3 0 4 -9 6 -9
8 -20 4 -24 -4 -5 -2 -5 4 -2 7 4 14 0 17 -8 4 -10 1 -12 -11 -8 -15 6 -15 5
-3 -10 7 -9 10 -17 5 -17 -4 0 -3 -5 4 -12 7 -7 12 -17 12 -22 0 -6 -5 -4 -11
4 -8 12 -9 10 -7 -10 2 -14 7 -28 11 -31 5 -3 1 -9 -8 -12 -11 -5 -14 -3 -9 6
4 6 3 9 -1 4 -15 -13 -12 -58 3 -52 7 2 10 0 7 -5 -3 -6 0 -10 7 -10 10 0 10
-2 1 -8 -7 -4 -11 -16 -9 -27 2 -11 -6 -33 -17 -50 l-21 -30 22 19 c12 11 25
16 29 13 3 -4 1 -7 -6 -7 -8 0 -11 -6 -7 -16 3 -8 2 -12 -4 -9 -6 3 -10 2 -10
-4 0 -5 -3 -18 -7 -28 -6 -15 -5 -16 9 -5 13 11 18 11 24 0 4 -7 4 -10 -1 -6
-4 4 -14 0 -21 -10 -17 -22 -18 -38 -1 -23 11 8 13 6 12 -9 -1 -11 -7 -26 -13
-32 -17 -17 -15 -28 6 -29 14 0 14 -2 -3 -9 -12 -5 -14 -9 -6 -9 11 -1 10 -6
-5 -22 -10 -11 -14 -20 -9 -19 6 2 17 2 25 1 13 -1 13 -2 0 -11 -17 -11 -22
-70 -6 -70 6 0 4 -5 -4 -10 -10 -6 -11 -10 -2 -10 6 0 12 -5 12 -11 0 -5 -3
-8 -7 -6 -5 3 -9 -10 -10 -29 -1 -23 2 -32 9 -28 7 5 8 2 2 -7 -11 -18 -13
-139 -2 -139 4 0 8 -5 8 -11 0 -5 -4 -7 -10 -4 -5 3 -10 1 -10 -4 0 -6 5 -11
10 -11 6 0 10 -5 10 -11 0 -5 -4 -8 -9 -5 -5 3 -8 -8 -7 -24 0 -17 5 -30 10
-30 6 0 1 -7 -10 -15 -14 -11 -15 -14 -3 -9 10 3 20 0 25 -7 4 -8 3 -10 -4 -5
-7 4 -12 2 -12 -4 0 -6 -6 -8 -12 -5 -7 4 -4 -1 6 -9 11 -9 15 -16 9 -16 -6 0
-14 -7 -17 -16 -5 -14 -4 -15 9 -4 9 8 15 8 15 2 0 -6 -4 -13 -8 -16 -5 -3 -9
-25 -9 -50 -1 -32 3 -44 11 -39 6 4 5 0 -2 -9 -10 -13 -10 -17 0 -21 10 -4 10
-6 1 -6 -7 -1 -13 -9 -13 -18 0 -15 2 -16 10 -3 6 9 10 10 10 3 0 -6 -5 -15
-10 -18 -6 -3 -10 -14 -10 -23 0 -15 2 -15 10 -2 6 9 10 10 10 3 0 -6 -4 -15
-10 -18 -15 -9 -12 -27 3 -19 10 6 10 4 0 -7 -16 -16 -17 -33 -2 -23 6 3 3 -6
-7 -22 -18 -28 -18 -29 1 -14 14 11 17 12 11 1 -5 -7 -10 -25 -11 -40 -2 -14
-4 -30 -5 -36 -5 -22 1 -46 10 -40 6 3 7 -1 4 -9 -3 -9 -11 -13 -18 -9 -8 4
-8 2 1 -7 6 -7 9 -19 6 -26 -3 -8 1 -22 8 -31 10 -12 10 -15 2 -9 -9 5 -13 0
-13 -13 0 -12 6 -21 13 -21 8 0 8 -3 -2 -9 -8 -5 -15 -21 -15 -34 -1 -14 1
-24 4 -22 3 2 5 -16 5 -40 0 -24 -3 -41 -6 -39 -3 1 -6 -3 -6 -11 0 -8 6 -15
14 -15 7 0 13 -5 13 -11 0 -5 -4 -7 -10 -4 -6 4 -10 -8 -10 -30 0 -26 4 -34
13 -30 6 4 3 -1 -7 -9 -15 -12 -16 -16 -5 -16 10 0 11 -2 2 -8 -8 -5 -9 -13
-3 -22 13 -20 12 -33 -1 -24 -8 5 -9 2 -2 -11 6 -10 8 -27 5 -38 -4 -15 -2
-18 9 -13 8 4 6 1 -3 -6 -11 -10 -14 -19 -8 -28 6 -9 4 -17 -3 -22 -9 -6 -8
-8 2 -8 11 0 9 -4 -5 -15 -18 -14 -18 -14 4 -10 12 2 22 0 22 -6 0 -5 -6 -9
-13 -9 -18 0 -16 -40 3 -41 9 0 6 -4 -7 -9 -13 -5 -23 -15 -23 -22 0 -9 3 -9
10 2 8 13 11 13 22 1 10 -10 10 -12 1 -7 -16 9 -18 -40 -3 -49 7 -4 7 -11 2
-18 -15 -20 -22 -58 -9 -51 9 5 9 4 1 -5 -7 -8 -9 -25 -4 -47 5 -21 4 -34 -2
-34 -6 0 -5 -6 2 -15 8 -10 9 -15 2 -15 -6 0 -9 -6 -6 -14 3 -8 0 -17 -6 -21
-8 -5 -6 -13 6 -26 9 -10 13 -19 8 -19 -5 0 -10 -9 -10 -19 0 -11 3 -18 7 -15
13 8 4 -31 -11 -44 -8 -8 -10 -11 -3 -8 6 4 14 2 18 -4 3 -5 -2 -10 -12 -11
-16 0 -16 -1 2 -9 11 -5 15 -9 10 -9 -12 -1 -13 -41 -1 -59 4 -8 1 -12 -10
-12 -17 0 -17 -1 0 -13 17 -13 17 -14 1 -30 -15 -16 -15 -17 2 -17 14 0 15 -2
4 -9 -11 -7 -11 -9 0 -14 12 -5 12 -6 0 -6 -11 -1 -11 -4 -1 -16 9 -11 9 -15
1 -15 -7 0 -9 -5 -5 -12 12 -20 8 -87 -7 -105 -10 -11 -10 -14 -1 -9 13 8 15
-1 13 -44 -2 -41 -1 -112 2 -160 1 -25 -1 -60 -4 -78 -4 -17 -3 -35 3 -38 5
-3 1 -13 -9 -21 -10 -8 -12 -12 -6 -8 7 3 13 2 13 -4 0 -5 -6 -12 -12 -14 -7
-3 -4 -6 6 -6 20 -1 20 -1 0 -17 -10 -8 -13 -13 -7 -9 9 4 13 -2 13 -20 0 -31
25 -63 33 -42 3 6 6 1 7 -13 1 -25 1 -25 12 -3 l11 22 19 -22 c11 -12 17 -17
14 -12 -2 6 5 17 17 24 18 11 20 11 10 0 -18 -18 -16 -25 7 -26 13 -1 18 2 13
10 -4 7 0 6 10 -2 9 -7 15 -17 12 -20 -2 -4 2 -8 9 -8 8 0 12 7 9 16 -3 9 6 3
19 -13 14 -16 29 -26 35 -23 5 3 21 0 36 -8 19 -9 29 -10 33 -3 5 7 2 8 -6 3
-9 -5 -11 -4 -6 4 6 9 11 9 21 1 7 -6 21 -7 30 -3 13 4 16 3 11 -6 -6 -9 -1
-12 20 -9 22 2 28 -1 26 -13 -2 -12 5 -15 28 -11 20 3 30 0 30 -9 0 -10 3 -10
11 -2 9 9 18 8 35 -3 13 -9 27 -16 31 -17 4 -1 7 -5 6 -8 -1 -3 4 -6 12 -6 7
0 11 7 7 15 -4 11 -2 13 9 6 8 -4 20 -9 28 -11 8 -1 17 -7 21 -14 5 -7 19 -10
34 -7 15 3 29 1 33 -5 4 -6 1 -7 -7 -2 -9 5 -11 4 -6 -4 4 -6 13 -8 19 -4 18
11 38 12 31 2 -3 -5 -10 -6 -16 -3 -6 4 -8 2 -5 -3 4 -6 18 -8 32 -5 16 3 25
0 25 -8 0 -9 4 -9 17 1 9 8 14 9 10 3 -4 -7 0 -15 9 -18 8 -3 12 -2 9 3 -3 5
0 13 6 17 8 4 9 3 5 -4 -4 -7 -2 -12 5 -12 8 0 8 -5 -2 -17 -10 -14 -8 -13 9
2 13 11 23 15 22 10 -5 -24 1 -27 16 -9 13 16 15 16 10 2 -3 -10 0 -20 6 -24
7 -4 8 -3 4 4 -4 7 -2 12 3 12 6 0 11 -4 11 -9 0 -5 13 -8 29 -7 22 2 28 -2
23 -14 -4 -12 -2 -12 14 2 19 17 21 16 37 -3 10 -11 22 -17 27 -14 6 3 10 2
10 -4 0 -6 7 -8 15 -5 8 4 12 11 8 17 -3 6 -1 7 6 3 6 -4 9 -12 6 -17 -4 -5 8
-9 25 -9 18 0 29 -4 25 -10 -6 -9 7 -13 48 -13 9 0 17 -4 17 -10 0 -5 7 -4 15
3 12 10 15 9 16 -6 0 -12 3 -14 6 -6 4 10 9 9 20 -5 8 -10 12 -13 9 -6 -4 7 1
11 13 10 11 0 18 -5 15 -9 -3 -4 9 -5 25 -3 20 2 28 0 25 -9 -2 -6 3 -12 13
-12 10 -1 27 -5 38 -9 19 -8 19 -7 5 11 -14 18 -14 18 5 4 11 -8 23 -19 27
-25 5 -6 8 -5 8 3 0 7 4 11 10 7 5 -3 7 -13 4 -23 -5 -14 -4 -15 5 -2 9 12 12
13 20 1 7 -11 10 -11 15 0 5 11 7 11 12 1 5 -10 9 -10 22 0 9 7 13 8 10 3 -4
-6 -3 -17 3 -25 7 -13 9 -13 9 0 0 9 8 16 19 16 13 0 17 -5 13 -16 -5 -13 -4
-13 13 0 11 9 16 10 11 3 -4 -7 -2 -14 3 -14 6 -1 16 -2 21 -3 6 0 15 -8 21
-16 9 -13 10 -12 5 3 -3 9 -1 17 4 17 6 0 10 -4 10 -10 0 -5 9 -10 21 -10 13
0 18 -4 13 -13 -6 -9 -5 -9 7 -1 11 9 17 9 26 -1 6 -7 11 -15 10 -17 -1 -2 6
4 15 14 16 18 17 18 23 -2 5 -17 10 -19 21 -9 11 9 14 9 14 -1 0 -8 9 -11 25
-8 27 6 32 -1 14 -19 -14 -14 40 -5 61 11 13 10 13 9 1 -6 -7 -10 -12 -18 -10
-19 5 -1 79 -9 97 -11 7 -1 10 -8 7 -16 -4 -11 -2 -12 8 -4 10 9 17 8 27 -1 9
-8 11 -9 6 0 -3 6 -2 14 4 18 5 3 10 1 10 -5 0 -6 4 -9 9 -5 5 3 12 1 16 -5 4
-6 11 -7 17 -4 6 4 8 2 5 -3 -4 -6 3 -13 15 -16 13 -4 26 -1 30 6 5 8 8 7 8
-5 0 -10 6 -19 13 -19 6 -1 24 -2 38 -3 15 0 37 -10 50 -21 18 -15 20 -15 10
-2 -8 10 -9 17 -3 17 6 0 16 -8 21 -17 10 -17 10 -16 11 2 1 18 2 18 10 -2 5
-13 12 -23 16 -23 3 0 4 7 0 15 -3 8 -1 15 4 15 6 0 10 -7 10 -16 0 -8 4 -12
10 -9 5 3 10 1 10 -4 0 -6 5 -11 11 -11 5 0 7 5 4 10 -3 6 0 10 8 10 8 0 17
-10 20 -22 4 -15 9 -19 19 -11 7 5 24 10 37 11 18 1 22 -3 18 -18 -3 -13 0
-17 9 -13 8 3 11 10 8 17 -3 6 0 4 8 -4 14 -16 36 -19 56 -7 7 5 15 2 18 -8 6
-13 8 -14 15 -3 7 10 9 8 9 -6 0 -16 2 -17 18 -5 9 7 13 9 9 4 -4 -5 3 -14 15
-21 19 -10 26 -10 40 3 16 14 17 14 13 -6 -2 -12 0 -19 5 -16 21 13 49 13 44
1 -3 -7 2 -13 10 -13 8 0 13 5 9 10 -3 5 7 1 23 -9 29 -18 29 -18 14 1 -14 19
-14 19 6 3 11 -10 25 -14 30 -10 5 4 1 -1 -9 -10 -22 -21 -22 -21 21 -9 20 6
30 6 27 0 -4 -5 -2 -9 4 -9 5 0 12 6 14 13 3 7 6 4 6 -6 1 -10 5 -16 10 -13 5
4 11 1 13 -5 3 -8 10 -6 21 5 16 16 17 16 18 -6 0 -13 3 -18 5 -12 3 6 20 9
39 7 21 -2 35 1 35 7 0 6 6 8 13 4 7 -5 6 0 -3 11 -14 17 -14 18 8 6 12 -6 21
-7 20 -2 -2 5 6 17 17 26 17 15 16 15 -10 0 -29 -18 -30 -18 -13 1 9 10 17 23
16 27 0 5 4 12 8 15 4 4 3 0 -1 -8 -8 -13 -7 -13 8 -1 19 15 23 26 5 15 -8 -5
-9 -2 -4 11 5 15 4 16 -8 6 -11 -9 -16 -9 -22 0 -4 7 -3 10 2 7 5 -3 15 0 22
8 8 9 9 14 2 14 -7 0 -6 5 2 14 7 8 18 13 23 13 6 -1 10 10 10 24 -1 21 3 25
23 23 18 -2 22 1 18 13 -5 13 -4 14 9 3 13 -11 14 -10 8 6 -6 17 -5 18 11 5 9
-8 16 -10 15 -5 -1 5 -1 16 0 24 1 13 2 13 11 0 7 -11 10 -11 10 -2 0 7 8 12
17 10 10 -2 18 3 19 10 1 6 2 16 3 20 0 5 7 9 14 10 27 2 43 8 67 25 13 9 20
17 14 17 -5 0 -15 -5 -21 -11 -8 -8 -13 -8 -18 0 -3 6 -3 11 2 10 15 -2 53 13
49 20 -3 4 4 12 15 19 15 10 19 10 19 0 0 -9 3 -8 10 2 9 13 10 13 10 0 0 -13
1 -13 10 0 8 12 10 10 11 -10 0 -22 1 -22 8 -6 4 11 15 20 24 22 10 1 15 -2
11 -7 -3 -5 0 -9 5 -9 10 0 15 13 13 31 -1 4 9 5 21 2 18 -4 19 -3 7 6 -11 8
-12 11 -2 11 8 0 10 5 6 13 -6 9 -5 9 7 0 11 -9 14 -7 14 13 0 15 -6 24 -15
24 -13 0 -13 1 0 10 17 10 20 41 5 52 -7 5 -7 10 0 15 13 10 18 33 7 33 -4 0
-8 9 -8 19 0 11 4 17 8 15 4 -3 8 0 8 5 0 6 -5 11 -11 11 -8 0 -8 4 -1 13 13
16 13 29 -1 46 -9 12 -9 13 1 7 18 -11 15 5 -5 21 -10 8 -12 12 -5 8 6 -3 12
0 13 7 0 7 2 21 4 31 2 9 0 17 -4 17 -4 0 -7 9 -7 19 0 11 4 17 8 15 15 -10 8
9 -9 23 -10 8 -12 12 -5 8 6 -3 12 0 13 7 0 7 2 21 4 31 2 9 0 17 -4 17 -4 0
-7 9 -7 19 0 11 4 17 8 15 15 -10 8 9 -9 23 -10 8 -12 11 -4 7 11 -5 13 -2 9
14 -4 12 -3 20 1 17 10 -6 6 58 -4 75 -5 8 -4 11 1 7 5 -3 9 12 9 34 0 21 -4
39 -8 39 -5 0 -4 7 3 15 11 13 10 18 -6 31 -10 9 -13 13 -6 9 6 -3 12 0 13 7
0 7 2 21 4 31 2 9 0 17 -4 17 -4 0 -7 9 -7 19 0 11 4 17 8 15 15 -10 8 9 -9
23 -10 8 -12 12 -5 8 6 -3 12 0 13 7 0 7 2 21 4 31 2 9 0 17 -4 17 -4 0 -7 9
-7 19 0 11 4 17 8 15 4 -3 8 -1 8 5 0 5 -6 11 -12 14 -10 3 -10 7 1 20 11 14
11 17 0 17 -9 0 -10 3 -4 8 14 10 14 65 1 74 -7 5 -7 8 -1 8 13 0 15 70 2 70
-5 0 -4 7 3 15 11 13 10 18 -6 31 -10 9 -13 13 -6 9 6 -3 12 0 13 7 0 7 2 21
4 31 2 9 0 17 -4 17 -4 0 -7 9 -7 19 0 11 4 17 8 15 15 -10 8 9 -9 23 -10 8
-12 12 -5 8 6 -3 12 0 13 7 0 7 2 21 4 31 2 9 0 17 -4 17 -4 0 -7 9 -7 19 0
11 4 17 8 15 15 -10 8 9 -10 23 -9 8 -12 12 -6 9 7 -3 14 3 17 14 3 11 2 18
-2 15 -4 -2 -8 2 -8 10 0 8 4 12 9 9 15 -10 8 9 -9 23 -10 8 -12 12 -5 8 6 -3
12 0 13 7 0 7 2 21 4 31 2 9 0 17 -4 17 -4 0 -7 9 -7 19 0 11 4 17 8 15 15
-10 8 9 -9 23 -10 8 -12 12 -5 8 6 -3 12 0 13 7 0 7 2 21 4 31 2 9 0 17 -4 17
-4 0 -7 9 -7 19 0 11 4 17 8 15 15 -10 8 9 -9 23 -10 8 -12 11 -4 7 11 -5 13
-2 9 14 -4 12 -3 20 1 18 3 -2 6 13 6 35 0 21 -4 39 -10 39 -7 0 -7 3 0 8 13
9 16 72 3 72 -6 0 -5 7 2 15 11 13 10 18 -6 31 -10 9 -13 13 -6 9 6 -3 12 0
13 7 0 7 2 21 4 31 2 9 0 17 -4 17 -4 0 -7 9 -7 19 0 11 4 17 8 15 4 -3 8 0 8
5 0 6 -5 11 -11 11 -5 0 -8 4 -5 8 9 15 15 62 7 62 -3 0 -7 9 -7 19 0 11 4 17
8 15 4 -3 8 -1 8 5 0 5 -6 11 -12 14 -10 4 -10 7 -1 17 10 11 9 16 -5 27 -16
12 -16 13 0 7 15 -5 16 -2 8 25 -5 19 -5 29 1 26 16 -11 10 7 -8 21 -16 13
-16 14 -1 8 15 -5 16 -2 8 25 -5 19 -5 29 1 26 5 -4 9 -1 9 4 0 6 -4 11 -8 11
-5 0 -9 7 -9 15 0 8 4 12 9 9 4 -3 8 0 8 5 0 6 -6 11 -12 11 -9 0 -8 4 2 10
13 9 13 10 0 11 -8 1 -18 1 -22 0 -4 0 -5 6 -1 15 5 13 7 13 14 2 10 -15 10
-15 13 40 2 25 -1 37 -6 30 -5 -9 -8 -10 -8 -1 0 6 5 15 11 18 6 5 4 12 -8 21
-11 9 -13 13 -4 12 7 -2 15 5 16 15 2 9 -1 17 -7 17 -6 0 -5 6 2 15 10 12 10
15 -1 15 -11 0 -11 2 1 10 10 6 11 10 3 10 -7 0 -13 5 -13 11 0 5 6 7 13 3 9
-6 9 -5 0 8 -7 8 -10 18 -7 21 10 9 10 86 1 80 -5 -3 -4 4 2 16 10 18 9 21 -6
21 -15 0 -15 2 -4 9 20 13 22 51 2 51 -13 0 -14 2 -2 9 8 5 15 19 16 31 1 17
-2 20 -19 16 -20 -5 -20 -5 1 12 16 12 20 21 13 31 -5 9 -5 22 1 34 7 12 7 22
0 31 -7 9 -7 16 0 23 8 8 8 13 0 17 -6 4 -11 12 -11 17 0 6 4 8 8 5 4 -2 8 4
8 14 0 10 -4 16 -8 14 -11 -7 -10 4 3 28 8 15 8 19 0 14 -14 -9 -14 9 -1 35 8
13 7 19 0 19 -6 0 -8 5 -4 12 14 22 11 59 -5 53 -11 -4 -12 -3 -1 10 7 8 9 15
4 15 -4 0 -3 5 4 12 17 17 15 28 -5 28 -15 0 -16 2 -3 10 8 5 11 10 7 10 -4 0
-2 10 4 23 12 21 11 21 -6 7 -17 -14 -18 -14 -5 10 13 24 12 24 -5 10 -17 -14
-18 -14 -5 10 12 23 12 24 -3 12 -14 -12 -16 -11 -12 8 4 18 2 20 -11 9 -8 -6
-18 -9 -21 -5 -4 4 -1 11 7 16 10 7 11 10 3 10 -18 0 -28 -4 -26 -10 1 -3 -6
-6 -16 -6 -10 0 -18 5 -17 11 1 5 -3 11 -9 13 -5 1 -10 -2 -10 -7 0 -5 -4 -13
-9 -18 -5 -4 -6 -3 -3 3 4 7 -1 18 -10 25 -14 12 -16 12 -11 -2 4 -9 1 -16 -8
-16 -7 0 -11 4 -8 9 5 8 -17 12 -43 9 -6 -1 -14 3 -18 9 -5 8 -11 7 -21 -1
-11 -9 -14 -8 -14 2 0 11 -2 11 -9 -1 -6 -8 -7 -18 -4 -24 3 -5 1 -6 -5 -2 -6
4 -9 13 -5 21 6 16 -20 17 -45 1 -11 -7 -12 -4 -3 12 10 18 9 19 -13 9 -14 -7
-22 -16 -19 -21 4 -5 1 -6 -5 -2 -6 4 -9 12 -6 19 2 7 -4 13 -16 14 -11 1 -20
-2 -20 -6 0 -4 -7 -8 -15 -8 -8 0 -12 4 -10 8 3 3 -7 9 -22 12 -27 5 -27 5 -8
-10 20 -16 20 -16 0 -8 -11 5 -30 9 -42 9 -11 1 -19 5 -16 10 3 4 -5 5 -17 1
-15 -5 -20 -4 -16 4 4 6 3 11 -3 11 -5 0 -12 -8 -14 -17 -4 -17 -5 -17 -6 0 0
9 -8 17 -17 17 -14 0 -15 -2 -3 -17 12 -16 12 -16 -7 0 -12 10 -25 17 -30 16
-25 -4 -85 2 -80 9 2 4 -4 9 -15 9 -10 1 -19 -3 -19 -8 0 -6 5 -7 12 -3 7 4 8
3 4 -5 -5 -7 -12 -9 -19 -3 -7 5 -25 8 -42 7 -16 -2 -38 2 -47 7 -13 6 -18 5
-18 -4 0 -7 -7 -3 -15 9 -9 13 -23 20 -35 18 -11 -2 -22 0 -25 5 -7 11 -37 1
-47 -14 -5 -7 -8 -4 -8 7 0 9 -5 17 -11 17 -5 0 -7 -6 -3 -12 4 -7 4 -10 -1
-6 -4 4 -13 3 -20 -2 -8 -7 -19 -3 -33 11 -12 11 -27 17 -33 13 -8 -4 -7 -9 2
-15 10 -6 10 -9 2 -9 -7 0 -16 8 -22 17 -8 14 -12 15 -25 4 -12 -10 -16 -11
-16 -1 0 9 -4 9 -17 -1 -15 -12 -16 -12 -10 4 5 14 4 16 -10 8 -10 -5 -26 -5
-40 0 -15 5 -23 5 -23 -2 0 -6 -5 -7 -10 -4 -6 4 -7 11 -4 17 5 7 2 8 -7 2
-19 -12 -39 -14 -39 -4 0 4 -9 10 -20 13 -17 4 -20 2 -15 -16 4 -17 2 -15 -10
6 -16 28 -28 37 -19 13 3 -8 0 -17 -6 -21 -6 -3 -10 -3 -9 2 3 20 -3 23 -23
12 -21 -11 -22 -11 -10 4 11 13 11 15 0 13 -7 -1 -18 -5 -25 -9 -6 -4 -14 -3
-18 3 -4 6 -10 8 -15 5 -5 -3 -13 3 -19 12 -6 10 -11 13 -11 6 0 -7 -10 -18
-22 -24 -22 -12 -22 -11 -8 6 9 11 10 16 3 11 -8 -4 -13 -2 -13 4 0 6 -5 8
-10 5 -6 -4 -8 -11 -5 -16 3 -5 -1 -6 -9 -3 -9 3 -13 11 -9 18 4 6 -1 5 -10
-3 -10 -7 -17 -9 -17 -3 0 12 -18 11 -39 -2 -10 -6 -12 -5 -7 2 4 7 4 12 -1
13 -4 0 -16 2 -26 4 -9 2 -15 -1 -11 -6 3 -5 10 -6 16 -3 7 4 8 2 4 -4 -8 -13
-36 -5 -36 10 0 7 -5 6 -13 -1 -8 -6 -17 -8 -20 -4 -4 3 -7 0 -7 -7 0 -9 -5
-8 -14 5 -8 11 -19 16 -30 12 -9 -4 -16 -1 -16 5 0 6 -3 9 -6 5 -4 -3 -21 0
-39 7 -20 9 -38 10 -46 5 -19 -12 -42 -11 -34 1 3 6 1 10 -4 10 -6 0 -11 -4
-11 -8 0 -5 -7 -9 -15 -9 -8 0 -11 5 -8 10 4 6 0 8 -9 4 -9 -3 -21 0 -28 6
-10 9 -11 9 -6 0 3 -6 2 -14 -4 -18 -9 -5 -14 7 -11 27 1 12 -30 2 -40 -13 -7
-12 -13 -7 -11 11 0 3 -8 6 -18 6 -14 0 -16 -4 -9 -12 8 -9 5 -11 -10 -7 -12
3 -18 10 -14 16 4 6 0 8 -10 4 -10 -4 -25 -10 -34 -13 -16 -5 -16 -4 -3 6 12
9 10 11 -12 6 -23 -5 -26 -3 -21 11 5 15 3 15 -11 -2 -16 -20 -16 -20 -31 -1
-13 17 -15 18 -15 3 0 -9 -5 -17 -11 -17 -5 0 -8 4 -5 8 2 4 1 14 -5 22 -7 13
-9 12 -9 -2 0 -9 -4 -20 -10 -23 -5 -3 -7 0 -4 8 3 8 0 18 -7 23 -7 4 -10 3
-6 -3 4 -6 0 -16 -8 -23 -13 -11 -14 -10 -10 2 4 10 -1 17 -15 21 -15 4 -20 2
-17 -7 3 -7 -4 -12 -17 -13 -11 0 -15 1 -8 4 6 3 12 9 12 14 0 6 -4 7 -10 4
-5 -3 -16 -3 -22 2 -19 11 -37 12 -44 2 -3 -5 -10 -9 -15 -9 -6 0 -7 5 -3 11
4 7 -1 7 -15 -1 -17 -9 -26 -9 -37 1 -8 6 -17 9 -20 6 -3 -3 -17 -2 -30 3 -14
6 -26 6 -29 0 -9 -15 -47 8 -39 23 4 7 -2 4 -13 -6 -16 -14 -22 -15 -26 -5 -4
10 -6 10 -6 -1 -1 -11 -5 -10 -17 5 -11 14 -14 15 -11 3 4 -12 -1 -15 -18 -15
-13 1 -27 5 -31 9 -4 3 3 4 15 2 13 -2 19 0 15 6 -3 6 -8 8 -11 5 -3 -3 -14
-1 -24 5 -14 7 -17 6 -13 -5 3 -8 0 -17 -7 -22 -8 -4 -10 -3 -5 4 4 7 2 12 -4
12 -6 0 -9 4 -6 8 6 10 -74 9 -91 -1 -6 -4 -15 -2 -19 4 -5 8 -3 9 6 4 9 -6
11 -4 5 4 -5 9 -10 10 -18 2 -8 -8 -16 -6 -30 7 -19 17 -20 16 -7 -8 12 -23
12 -24 -3 -11 -9 7 -26 11 -37 8 -11 -3 -22 -1 -25 4 -3 4 -13 5 -22 2 -11 -4
-14 -3 -9 5 4 7 2 12 -3 12 -6 0 -11 -4 -11 -10 0 -5 -11 -9 -24 -8 -14 1 -22
6 -20 10 3 5 9 6 14 3 5 -3 11 -2 14 3 3 5 -9 8 -27 7 -18 -1 -38 3 -46 9 -11
8 -13 8 -7 -1 5 -9 0 -13 -13 -13 -30 0 -34 -1 -56 -12 -20 -9 -20 -9 -1 6 11
9 17 18 14 21 -2 3 -7 2 -10 -1z m99 -36 c-3 -8 -6 -5 -6 6 -1 11 2 17 5 13 3
-3 4 -12 1 -19z m-254 -43 c-3 -9 -8 -14 -10 -11 -3 3 -2 9 2 15 9 16 15 13 8
-4z m960 -22 c-3 -7 -6 -13 -8 -13 -2 0 -5 6 -8 13 -3 8 1 14 8 14 7 0 11 -6
8 -14z m395 -48 c-3 -3 -9 2 -12 12 -6 14 -5 15 5 6 7 -7 10 -15 7 -18z m155
-10 c-3 -9 -8 -14 -10 -11 -3 3 -2 9 2 15 9 16 15 13 8 -4z m32 -5 c3 -5 1
-10 -4 -10 -6 0 -11 5 -11 10 0 6 2 10 4 10 3 0 8 -4 11 -10z m919 -106 c3 -8
2 -12 -4 -9 -6 3 -10 10 -10 16 0 14 7 11 14 -7z m950 -322 c3 -5 -1 -9 -9 -9
-8 0 -12 4 -9 9 3 4 7 8 9 8 2 0 6 -4 9 -8z m-3532 -229 c-6 -2 -9 -10 -6 -15
4 -7 2 -8 -5 -4 -13 9 -5 26 12 25 9 0 8 -2 -1 -6z m-1 -160 c13 -16 12 -17
-3 -4 -10 7 -18 15 -18 17 0 8 8 3 21 -13z m-11 -683 c0 -5 -5 -10 -11 -10 -5
0 -7 5 -4 10 3 6 8 10 11 10 2 0 4 -4 4 -10z m-10 -1000 c0 -5 -5 -10 -11 -10
-5 0 -7 5 -4 10 3 6 8 10 11 10 2 0 4 -4 4 -10z m231 -985 c11 6 11 5 2 -5
-12 -14 -33 -6 -33 13 0 8 3 7 9 -2 5 -8 14 -10 22 -6z m916 -250 c0 -8 -4
-12 -9 -9 -5 3 -6 10 -3 15 9 13 12 11 12 -6z m2107 -211 c3 -8 2 -12 -4 -9
-6 3 -10 10 -10 16 0 14 7 11 14 -7z m-140 -100 c3 -8 2 -12 -4 -9 -6 3 -10
10 -10 16 0 14 7 11 14 -7z m-463 -101 c13 -16 12 -17 -3 -4 -10 7 -18 15 -18
17 0 8 8 3 21 -13z"/>
<path d="M2566 4822 c-3 -5 1 -9 9 -9 8 0 15 4 15 9 0 4 -4 8 -9 8 -6 0 -12
-4 -15 -8z"/>
<path d="M3275 4730 c4 -6 11 -8 16 -5 14 9 11 15 -7 15 -8 0 -12 -5 -9 -10z"/>
<path d="M3476 4722 c-3 -5 0 -12 8 -15 22 -9 50 -1 54 14 2 8 0 10 -5 4 -12
-15 -35 -17 -43 -4 -5 7 -10 8 -14 1z"/>
<path d="M767 4679 c7 -7 15 -10 18 -7 3 3 -2 9 -12 12 -14 6 -15 5 -6 -5z"/>
<path d="M775 4649 c-4 -6 -5 -12 -2 -15 2 -3 7 2 10 11 7 17 1 20 -8 4z"/>
<path d="M770 4520 c-9 -6 -10 -10 -3 -10 6 0 15 5 18 10 8 12 4 12 -15 0z"/>
<path d="M777 4493 c-10 -9 -9 -23 1 -23 5 0 9 7 9 15 0 17 -1 18 -10 8z"/>
<path d="M753 1885 c0 -8 4 -12 9 -9 5 3 6 10 3 15 -9 13 -12 11 -12 -6z"/>
<path d="M1356 1222 c-3 -5 1 -9 9 -9 8 0 12 4 9 9 -3 4 -7 8 -9 8 -2 0 -6 -4
-9 -8z"/>
<path d="M1751 1114 c0 -11 3 -14 6 -6 3 7 2 16 -1 19 -3 4 -6 -2 -5 -13z"/>
<path d="M2836 821 c-3 -5 1 -11 9 -14 9 -4 12 -1 8 9 -6 16 -10 17 -17 5z"/>
<path d="M3216 708 c3 -5 10 -6 15 -3 13 9 11 12 -6 12 -8 0 -12 -4 -9 -9z"/>
<path d="M3326 683 c-6 -14 -5 -15 5 -6 7 7 10 15 7 18 -3 3 -9 -2 -12 -12z"/>
</g>
</svg>
